<svg id="svg" xmlns="http://www.w3.org/2000/svg" xmlns:xlink="http://www.w3.org/1999/xlink" width="400" height="400" viewBox="0, 0, 400,400"><g id="svgg"><path id="path0" d="M119.967 36.255 C 99.396 45.218,99.575 43.780,99.575 200.000 C 99.575 356.589,99.381 355.055,120.360 363.820 C 128.737 367.321,271.263 367.321,279.640 363.820 C 300.619 355.055,300.425 356.589,300.425 200.000 C 300.425 43.411,300.619 44.945,279.640 36.180 C 271.400 32.737,127.886 32.805,119.967 36.255 M266.667 99.556 L 266.667 133.333 200.000 133.333 L 133.333 133.333 133.333 99.556 L 133.333 65.778 200.000 65.778 L 266.667 65.778 266.667 99.556 M266.667 200.000 L 266.667 232.889 200.000 232.889 L 133.333 232.889 133.333 200.000 L 133.333 167.111 200.000 167.111 L 266.667 167.111 266.667 200.000 M266.667 300.444 L 266.667 334.222 200.000 334.222 L 133.333 334.222 133.333 300.444 L 133.333 266.667 200.000 266.667 L 266.667 266.667 266.667 300.444 " stroke="none" fill="currentColor" fill-rule="evenodd"></path></g></svg>